<?xml version="1.0" encoding="UTF-8"?>
<svg version="1.1" xmlns="http://www.w3.org/2000/svg" width="512" height="512">
<path d="M0 0 C1.08912689 -0.01474869 2.17825378 -0.02949738 3.30038452 -0.04469299 C6.88042342 -0.08896687 10.46030075 -0.11738105 14.04052734 -0.1418457 C15.27126354 -0.15124491 16.50199974 -0.16064411 17.77003098 -0.17032814 C23.61501052 -0.21290984 29.45992595 -0.24673916 35.30502284 -0.26796216 C41.33999986 -0.29029398 47.37374089 -0.33585379 53.40820312 -0.41894531 C59.91565631 -0.50707818 66.42197796 -0.55031579 72.93000412 -0.56189919 C75.3962121 -0.57341745 77.8624016 -0.60008983 80.32826614 -0.64282799 C95.42233506 -0.88894401 105.69615533 -0.04768836 117.75146484 9.36987305 C119.21541451 10.25549315 120.69260053 11.12085076 122.19677734 11.9362793 C122.80706787 12.27240234 123.4173584 12.60852539 124.04614258 12.95483398 C171.84886227 38.4853248 228.55411384 43.03924636 280.26513672 27.62036133 C289.9227521 24.61790596 299.21516559 20.89724153 308.37646484 16.61987305 C309.14990234 16.26256104 309.92333984 15.90524902 310.72021484 15.53710938 C314.84441882 13.54388498 318.66489701 11.48814419 322.31318665 8.70936584 C335.48073282 -0.94499747 347.22692118 -1.12270934 363.13037109 -0.7746582 C365.63896834 -0.75917491 368.14759804 -0.74833011 370.65623474 -0.74186707 C377.20833619 -0.71146677 383.75774518 -0.61341095 390.30889893 -0.50201416 C395.65693495 -0.41697706 401.00505132 -0.39232159 406.35363865 -0.36432362 C412.75854002 -0.32988307 419.16318399 -0.2742507 425.56787109 -0.2121582 C426.7789258 -0.20082163 427.98998051 -0.18948505 429.23773384 -0.17780495 C432.67560567 -0.14036011 436.11293896 -0.08868118 439.55053711 -0.03173828 C441.05855896 -0.01660187 441.05855896 -0.01660187 442.5970459 -0.00115967 C452.7726801 0.19949733 460.83411102 1.65165242 468.75146484 8.36987305 C474.72923878 14.8421587 476.05099376 21.64940412 476.02561951 30.2243042 C476.03085619 31.1044224 476.03609286 31.9845406 476.04148823 32.89132905 C476.0564653 35.83441861 476.05719288 38.77733396 476.05786133 41.72045898 C476.06548437 43.83317355 476.07391212 45.94588534 476.08308411 48.05859375 C476.10502214 53.79426952 476.11382714 59.52989198 476.11891055 65.26560497 C476.12255505 68.85076466 476.12879562 72.43591039 476.13591194 76.02106476 C476.16040439 88.53349928 476.17345782 101.04589235 476.17700195 113.55834961 C476.18063665 125.21337839 476.21052807 136.86814375 476.25240654 148.52309203 C476.28712099 158.53603445 476.3025506 168.54888961 476.30324799 178.56189179 C476.30404042 184.53925298 476.31276415 190.51634581 476.34124565 196.49364471 C476.36744563 202.1178638 476.36962034 207.7415924 476.35359001 213.36584473 C476.35177706 215.42573365 476.35845221 217.4856509 476.37440872 219.54547882 C476.53205062 241.22353346 476.53205062 241.22353346 468.76161861 249.48562241 C462.46395572 255.57147683 456.22413929 257.8290498 447.54666424 257.75298309 C446.74467091 257.75794261 445.94267759 257.76290212 445.11638144 257.76801193 C442.4301022 257.7809611 439.74432057 257.77258554 437.05802917 257.76428223 C435.11220536 257.76917145 433.16638445 257.7753614 431.22056848 257.78274012 C425.87410364 257.7991588 420.52778607 257.79681775 415.18130481 257.79136515 C409.41497474 257.78869733 403.64868415 257.80322211 397.88237 257.81546021 C386.58550638 257.83652702 375.28869408 257.84105433 363.99181315 257.83927232 C354.81013646 257.8379653 345.62847581 257.84176578 336.44680214 257.84919739 C333.80319939 257.85129656 331.15959664 257.85339416 328.51599389 257.85549021 C327.20024298 257.85653374 325.88449206 257.85757726 324.5288699 257.85865241 C306.70964403 257.87242308 288.89042368 257.87977793 271.07119274 257.87532806 C270.374397 257.87515611 269.67760125 257.87498415 268.95969048 257.87480699 C265.42809462 257.87391811 261.89649878 257.87297329 258.36490294 257.87200898 C257.66352377 257.87181795 256.9621446 257.87162691 256.23951151 257.87143009 C254.82115228 257.871043 253.40279304 257.87065267 251.98443381 257.87025911 C229.91674441 257.86428963 207.84915989 257.87972521 185.78149414 257.91186523 C160.98472047 257.94794943 136.18801386 257.9672301 111.39121228 257.96232653 C98.26319467 257.9600809 85.13528101 257.96533869 72.00728416 257.99021912 C60.83071957 258.0112206 49.65431595 258.01483557 38.47774478 257.99591953 C32.77522411 257.98675464 27.07300366 257.98564209 21.37050629 258.00627518 C16.14879647 258.0249597 10.9276333 258.02050955 5.70594446 257.99772936 C3.81836971 257.99353728 1.93075326 257.997764 0.04322257 258.0113253 C-20.08624043 258.14608347 -20.08624043 258.14608347 -28.37129146 250.38011312 C-34.76054732 243.74265725 -36.70252356 237.36832671 -36.63621521 228.38845825 C-36.64160075 227.50678006 -36.64698629 226.62510187 -36.65253502 225.71670616 C-36.6667962 222.7742913 -36.65971537 219.8323275 -36.65258789 216.88989258 C-36.65829244 214.7754073 -36.66525703 212.6609251 -36.67338562 210.54644775 C-36.69132345 204.81085927 -36.69014733 199.07542373 -36.68444324 193.33981562 C-36.68135205 188.54858864 -36.68744312 183.75739107 -36.69348198 178.96616828 C-36.70752789 167.66109576 -36.70596556 156.3560988 -36.69458008 145.05102539 C-36.68310082 133.39541562 -36.69717129 121.740036 -36.72397655 110.08445656 C-36.74614228 100.07065306 -36.75276888 90.05692176 -36.74690014 80.04309547 C-36.74353123 74.06527628 -36.74594134 68.08760458 -36.76315117 62.10980606 C-36.77863179 56.48725283 -36.77465203 50.86504014 -36.75584602 45.24250031 C-36.75216317 43.18220204 -36.75525972 41.12187849 -36.76573181 39.06160355 C-36.77896419 36.24243032 -36.76737418 33.42438074 -36.7497406 30.60525513 C-36.75934561 29.79580071 -36.76895061 28.98634629 -36.77884668 28.15236294 C-36.68745935 21.01948298 -34.5438595 15.09944794 -29.93603516 9.61987305 C-29.04916016 8.87737305 -28.16228516 8.13487305 -27.24853516 7.36987305 C-26.47703125 6.70665039 -26.47703125 6.70665039 -25.68994141 6.0300293 C-18.15806077 0.02887729 -9.27330971 0.063797 0 0 Z M258.75146484 59.36987305 C256.01605221 64.91202489 254.51059136 70.6041875 253.02416992 76.58447266 C252.77013901 77.58701584 252.51610809 78.58955902 252.25437927 79.6224823 C251.42048905 82.92089169 250.59531479 86.22140334 249.77099609 89.5222168 C249.19259853 91.82481339 248.61395611 94.1273485 248.03507996 96.42982483 C246.82492192 101.24957638 245.61937318 106.07045343 244.41674805 110.89208984 C242.87702926 117.06266266 241.32339488 123.22963559 239.76596546 129.39575863 C238.56782586 134.14769169 237.37837281 138.90176726 236.19138145 143.65649605 C235.62221558 145.93095642 235.05007104 148.2046736 234.47486305 150.47761345 C233.6710779 153.65819393 232.87936569 156.84155133 232.09057617 160.02587891 C231.8521701 160.95859619 231.61376404 161.89131348 231.36813354 162.85229492 C230.066539 168.16928648 229.32585675 172.89159416 229.75146484 178.36987305 C232.32406082 182.11183083 233.78974918 183.18096461 238.25146484 184.05737305 C241.95922471 183.32906307 243.22300273 182.50421245 245.52050781 179.57421875 C248.33337591 174.53705373 249.2878203 168.69772336 250.56396484 163.11987305 C250.87693551 161.81482914 251.19137649 160.51013691 251.50732422 159.20581055 C253.09212892 153.35187071 253.09212892 153.35187071 253.75146484 147.36987305 C261.67146484 147.36987305 269.59146484 147.36987305 277.75146484 147.36987305 C278.24646484 151.32987305 278.24646484 151.32987305 278.75146484 155.36987305 C279.53348142 159.30051812 280.51730071 163.17290705 281.50146484 167.05737305 C281.74123047 168.07637695 281.98099609 169.09538086 282.22802734 170.14526367 C283.69824367 175.93897698 284.85403515 179.76610403 289.75146484 183.36987305 C293.58451938 184.08857077 295.18842096 183.69518729 298.56396484 181.74487305 C301.347989 178.72221824 301.50301902 177.47702575 301.75146484 173.36987305 C301.19128621 169.67670869 300.27786395 166.08909383 299.3581543 162.47094727 C299.09162552 161.38409637 298.82509674 160.29724548 298.55049133 159.17745972 C297.66718597 155.59008345 296.76665439 152.00730144 295.86474609 148.42456055 C295.24451113 145.93180531 294.6249062 143.43889323 294.00590515 140.9458313 C292.70631306 135.72369934 291.39819579 130.50380811 290.08374023 125.28540039 C288.56564623 119.25777762 287.06643957 113.22568475 285.57666618 107.19100559 C284.14079957 101.37751104 282.6891493 95.56808962 281.23100853 89.76013565 C280.61313618 87.29162309 279.99959179 84.82202309 279.39043617 82.35134506 C278.53772955 78.90066746 277.66715536 75.45498758 276.79174805 72.01000977 C276.54273743 70.98653442 276.29372681 69.96305908 276.03717041 68.90856934 C274.40374429 62.23229052 274.40374429 62.23229052 269.75146484 57.36987305 C265.06188766 55.87319948 262.50212546 56.12605846 258.75146484 59.36987305 Z M313.75146484 59.36987305 C311.62086503 62.56577277 311.49768818 63.38631321 311.47731018 67.05610657 C311.46733505 68.01918732 311.45735992 68.98226807 311.44708252 69.97453308 C311.44641785 71.02965591 311.44575317 72.08477875 311.44506836 73.171875 C311.43674484 74.28433594 311.42842133 75.39679688 311.41984558 76.54296875 C311.39569204 80.23139924 311.38696662 83.91965304 311.38037109 87.6081543 C311.37140852 90.1678218 311.36228675 92.72748876 311.35301208 95.28715515 C311.33650472 100.6580872 311.32878572 106.02895282 311.32592773 111.39990234 C311.32229452 117.60132367 311.29241589 123.80224944 311.25052315 130.00351936 C311.21160443 135.97451597 311.2003343 141.94536417 311.19920158 147.91649437 C311.19499236 150.45424269 311.18253015 152.99199117 311.16168404 155.52965736 C311.13484175 159.08010647 311.13957533 162.62918888 311.15209961 166.1796875 C311.13726532 167.22873764 311.12243103 168.27778778 311.10714722 169.35862732 C311.15288404 173.90971295 311.19841235 177.33149167 314.05307007 181.02073669 C317.57636667 184.08800624 320.43683966 184.23961236 324.91162109 184.16674805 C326.09019936 184.17535858 326.09019936 184.17535858 327.29258728 184.18414307 C328.95428349 184.18821683 330.6160764 184.17720818 332.27758789 184.15209961 C334.78351979 184.12025987 337.2828554 184.15163983 339.78857422 184.19018555 C349.57162877 184.2158758 357.53857963 183.29531764 365.75146484 177.36987305 C373.16994276 169.92716054 375.12719437 161.76196962 375.16162109 151.50854492 C375.15001953 150.3284082 375.13841797 149.14827148 375.12646484 147.93237305 C375.13806641 146.75610352 375.14966797 145.57983398 375.16162109 144.36791992 C375.1358998 136.69868669 374.77251487 129.36197486 370.00146484 123.05737305 C368.75146484 121.36987305 368.75146484 121.36987305 368.81396484 119.55737305 C369.93415704 116.94359126 371.31974031 114.56825097 372.81396484 112.15112305 C375.84820709 106.38606279 374.97461889 99.50123845 375.00146484 93.18237305 C375.02208984 91.98805664 375.04271484 90.79374023 375.06396484 89.56323242 C375.11214057 78.62131976 373.56283752 71.36005084 365.94287109 63.3190918 C359.50348397 57.59136599 352.72580096 56.21887416 344.31787109 56.16674805 C343.60291977 56.16104797 342.88796844 56.1553479 342.15135193 56.1494751 C340.64266427 56.14005191 339.13395628 56.1335018 337.62524414 56.12963867 C335.32515469 56.11992033 333.02595471 56.08886815 330.72607422 56.05737305 C329.25667845 56.05084333 327.78727634 56.04559274 326.31787109 56.04174805 C325.29265099 56.02322784 325.29265099 56.02322784 324.24671936 56.0043335 C319.90071711 56.02448001 317.19772107 56.70044167 313.75146484 59.36987305 Z M392.75146484 69.6940918 C385.11221148 79.83201762 384.28987679 89.79701206 384.35302734 102.21362305 C384.35100069 103.63269194 384.34808436 105.05175982 384.34432983 106.4708252 C384.33993422 109.42930117 384.34624736 112.3875034 384.36035156 115.34594727 C384.37744212 119.11146595 384.36758594 122.87634285 384.34963417 126.64183807 C384.33872091 129.56749179 384.34227691 132.49299686 384.35001755 135.4186554 C384.3519988 136.80593444 384.34963447 138.1932276 384.34257889 139.58049011 C384.28977083 152.87697762 386.23533293 163.49583009 395.63818359 173.34643555 C404.32616092 181.36873289 412.39771954 183.75635665 424.07568359 183.6472168 C432.74851954 182.99283704 440.55313929 179.48957291 446.75146484 173.36987305 C453.48851624 165.41283246 457.54019872 157.17931433 457.16162109 146.61206055 C456.848438 144.07308182 456.848438 144.07308182 454.68896484 141.24487305 C450.96535821 138.86810286 449.09335907 138.59453479 444.75146484 139.36987305 C441.45840369 141.49206802 440.04157847 143.1812863 439.10693359 147.01049805 C438.79356276 148.91620033 438.52439347 150.82985426 438.30615234 152.7487793 C437.68854029 155.66721372 436.60402754 157.08170777 434.75146484 159.36987305 C434.75146484 160.02987305 434.75146484 160.68987305 434.75146484 161.36987305 C429.00970335 164.46159077 423.32872765 166.36754774 416.75146484 165.36987305 C411.49074444 163.600358 407.71820879 161.16230557 404.75146484 156.36987305 C403.13571883 152.21995649 402.49671038 148.75068109 402.47680664 144.30786133 C402.46250862 142.54540573 402.46250862 142.54540573 402.44792175 140.74734497 C402.44883316 139.49098236 402.44974457 138.23461975 402.45068359 136.94018555 C402.44639847 135.63588593 402.44211334 134.3315863 402.43769836 132.98776245 C402.43025849 130.23244145 402.43051081 127.47724862 402.43579102 124.72192383 C402.44157845 121.2094562 402.42466201 117.69751714 402.40144634 114.1851368 C402.38307778 110.81179865 402.38689617 107.43857329 402.38818359 104.06518555 C402.37897385 102.8128714 402.3697641 101.56055725 402.36027527 100.27029419 C402.40287526 92.19131044 402.77727616 85.87789047 408.18896484 79.49487305 C414.03871941 74.64385707 419.34032786 74.73406505 426.75146484 75.36987305 C432.32235849 77.25999768 435.26563426 80.39821188 437.87646484 85.61987305 C438.75146484 88.36987305 438.75146484 88.36987305 439.13818359 90.5456543 C439.84325218 94.49791952 440.32147381 96.85388381 442.93896484 99.99487305 C446.74853207 101.85732813 448.72631955 101.61400886 452.75146484 100.36987305 C455.44077112 98.23221934 456.50848004 96.621474 457.16552734 93.23706055 C457.75602967 83.57146983 453.66190154 75.2088117 447.56396484 67.93237305 C440.23633374 60.34912691 431.41924476 57.04795236 421.06396484 55.99487305 C409.74604893 56.3736222 400.04569715 61.21739605 392.75146484 69.6940918 Z M9.61157227 70.2409668 C7.19768221 72.55626314 4.84282659 74.91880643 2.50146484 77.30737305 C1.68677734 78.11883789 0.87208984 78.93030273 0.03271484 79.76635742 C-4.90504177 84.50691145 -4.90504177 84.50691145 -8.24853516 90.36987305 C-8.07185704 93.72675725 -7.87002771 96.33405213 -6.12353516 99.24487305 C-3.05538377 101.08576388 -0.82618573 101.36987305 2.75146484 101.36987305 C5.06146484 99.71987305 7.37146484 98.06987305 9.75146484 96.36987305 C9.75146484 119.46987305 9.75146484 142.56987305 9.75146484 166.36987305 C2.82146484 166.36987305 -4.10853516 166.36987305 -11.24853516 166.36987305 C-17.4543296 170.4731505 -17.4543296 170.4731505 -17.93603516 174.86987305 C-17.05181212 179.37137214 -15.8954758 180.6056129 -12.24853516 183.36987305 C-9.00628038 184.09905675 -5.84246995 184.07122718 -2.52978516 184.03393555 C-1.59428833 184.03871918 -0.6587915 184.04350281 0.30505371 184.0484314 C2.27858161 184.05182665 4.25216603 184.04265044 6.22558594 184.02172852 C9.2420014 183.99495704 12.25469601 184.02148841 15.27099609 184.0534668 C17.1915772 184.05016263 19.112156 184.04375626 21.03271484 184.03393555 C22.38133606 184.04911728 22.38133606 184.04911728 23.75720215 184.06460571 C28.25025082 183.98074019 30.15503888 183.8384524 33.79248047 180.98071289 C35.89325606 178.18090055 36.83683649 176.87011065 36.75146484 173.36987305 C35.25146484 170.03653971 35.25146484 170.03653971 32.75146484 167.36987305 C30.17047281 166.66362318 30.17047281 166.66362318 27.75146484 166.36987305 C27.75812668 164.65765312 27.75812668 164.65765312 27.7649231 162.9108429 C27.80546168 152.15491062 27.83544567 141.39899384 27.85508919 130.64300251 C27.86552758 125.11320627 27.87968791 119.58347169 27.90234375 114.05371094 C27.92406998 108.71746909 27.93603305 103.38128656 27.94121933 98.04500389 C27.94491547 96.00884251 27.95213303 93.97268437 27.96292496 91.93654823 C27.97743683 89.08523153 27.9794429 86.23416017 27.97851562 83.3828125 C27.98570618 82.54052094 27.99289673 81.69822937 28.00030518 80.83041382 C27.98244207 75.75621247 27.58229645 71.81098185 24.43896484 67.61987305 C18.94499394 63.55026497 14.31176523 66.13118027 9.61157227 70.2409668 Z M54.50146484 77.55737305 C48.14576103 85.15168843 45.90055435 92.58422874 46.23974609 102.4909668 C46.76369068 105.43865506 47.18243933 106.69335117 49.31396484 108.74487305 C53.50727634 110.72716575 55.36304832 110.83267856 59.75146484 109.36987305 C64.21089188 105.75412139 64.37459307 101.38865137 65.19677734 96.0300293 C66.12768191 91.56562077 68.46324455 88.80122893 71.43896484 85.49487305 C75.14794862 83.69050256 78.71498575 83.72721358 82.75146484 84.36987305 C87.14815549 86.85495906 88.82885016 89.78144809 90.75146484 94.36987305 C92.96679758 113.09043257 85.20722544 128.93448694 73.87890625 143.49072266 C70.55104823 147.55088711 66.91053641 151.24434409 63.14990234 154.90112305 C62.65299393 155.38654068 62.15608551 155.87195831 61.64411926 156.37208557 C59.12715514 158.82459188 56.59082797 161.25046115 54.0168457 163.64306641 C52.6112439 164.9909021 52.6112439 164.9909021 51.17724609 166.3659668 C50.32557861 167.16188232 49.47391113 167.95779785 48.59643555 168.77783203 C46.11591215 172.26277538 46.04609755 174.17947101 46.75146484 178.36987305 C48.381342 181.50765243 48.381342 181.50765243 51.75146484 183.36987305 C55.65169656 184.08706644 59.48261337 184.04664132 63.43896484 183.9987793 C64.57422607 184.00119125 65.7094873 184.00360321 66.87915039 184.00608826 C69.27640277 184.00510993 71.67367777 183.99172001 74.07080078 183.96679688 C77.7385743 183.93249361 81.40393795 183.94613967 85.07177734 183.96557617 C87.40251676 183.95867759 89.73324996 183.94900511 92.06396484 183.9362793 C93.15990967 183.94123917 94.25585449 183.94619904 95.38500977 183.9513092 C101.43877577 183.87110181 101.43877577 183.87110181 106.91943359 181.51806641 C109.29924607 178.72755868 109.75146484 177.02890671 109.75146484 173.36987305 C108.14734636 169.84081238 107.00987123 168.54214397 103.75146484 166.36987305 C100.93991769 166.09338751 100.93991769 166.09338751 97.77099609 166.17456055 C96.60761719 166.18100586 95.44423828 166.18745117 94.24560547 166.1940918 C93.03066406 166.21084961 91.81572266 166.22760742 90.56396484 166.24487305 C88.72415039 166.2584082 88.72415039 166.2584082 86.84716797 166.2722168 C83.81507189 166.29581288 80.78336547 166.32873464 77.75146484 166.36987305 C78.64877319 165.28923584 78.64877319 165.28923584 79.56420898 164.18676758 C81.55245249 161.78479214 83.52325367 159.36965026 85.48144531 156.94311523 C86.66226328 155.48037187 87.84919686 154.02257119 89.03662109 152.56518555 C101.91241572 136.16955289 111.33779611 116.66783915 109.75146484 95.36987305 C108.07277835 85.8525742 103.25332443 77.66787844 95.66552734 71.65112305 C81.11209767 61.90923543 66.32936237 65.18390829 54.50146484 77.55737305 Z M139.75146484 73.36987305 C133.1622098 79.83337895 128.73544209 88.41968904 128.31396484 97.74487305 C128.7699665 101.52317249 129.34484657 103.44755085 131.75146484 106.36987305 C134.2937609 108.29851144 135.53491502 108.37889596 138.75146484 108.24487305 C142.44517875 107.16753982 143.60449137 106.59033326 145.75146484 103.36987305 C146.38916488 100.59224001 146.83211168 97.8148879 147.26708984 94.9987793 C148.06583467 90.66365614 149.58705642 88.3346686 152.93896484 85.55737305 C156.61147971 84.00675566 159.86156545 83.68342021 163.75146484 84.36987305 C168.14275746 86.60694664 170.82628326 88.81023246 172.75146484 93.36987305 C174.23040709 99.45761207 174.04450658 103.8460611 170.75146484 109.36987305 C166.79419286 113.51558655 163.30847403 115.13191205 157.80224609 116.59643555 C155.43459718 117.48937742 154.31830645 118.39470302 152.75146484 120.36987305 C151.66348322 124.28660689 151.2939517 126.41127407 153.06396484 130.11987305 C156.35008034 132.87103951 159.25897442 133.55174324 163.34521484 134.6394043 C168.14279953 136.09581393 170.19961876 138.36132676 172.56396484 142.68237305 C174.33237061 148.17373833 174.46687407 152.25534294 172.18896484 157.55737305 C169.91485052 161.65875818 167.2882489 164.0447272 162.75146484 165.36987305 C158.33552569 165.77986353 154.92317878 164.84025113 151.37646484 162.18237305 C148.05064055 158.61898988 147.19686019 155.81954745 146.33740234 151.0925293 C145.5025789 146.32811463 145.5025789 146.32811463 143.00146484 142.30737305 C139.96950076 141.04405468 138.0115245 140.90415024 134.75146484 141.36987305 C132.05155823 143.16981079 130.20957834 144.45364605 128.75146484 147.36987305 C127.96574633 157.26992627 130.45738215 165.09877986 136.87646484 172.74487305 C143.02803667 179.15106291 150.83370005 183.43686941 159.81396484 183.68237305 C168.67917673 183.56541774 175.51973428 180.41915073 181.93115234 174.3581543 C189.58210071 166.00121713 192.26261496 158.01658 192.06787109 146.72143555 C191.2842273 138.42061609 187.8934821 131.79739461 182.75146484 125.36987305 C183.89541151 123.0709271 185.05342497 120.78037 186.22412109 118.49487305 C186.74876953 117.46362305 187.27341797 116.43237305 187.81396484 115.36987305 C188.34119141 114.33862305 188.86841797 113.30737305 189.41162109 112.24487305 C192.68338568 105.22441026 192.90407408 97.07910507 191.06787109 89.5769043 C187.45005636 79.89437109 181.82020844 73.32219564 172.75146484 68.36987305 C160.93634464 63.11462518 149.81891821 65.60259943 139.75146484 73.36987305 Z M57.39208984 224.19311523 C55.49460484 227.31145264 55.49460484 227.31145264 55.62646484 230.99487305 C56.97695081 235.04633094 58.21032163 236.06999501 61.75146484 238.36987305 C64.63212315 238.96860998 64.63212315 238.96860998 67.74755859 238.88745117 C69.5246521 238.90636414 69.5246521 238.90636414 71.33764648 238.92565918 C73.24404907 238.91351379 73.24404907 238.91351379 75.18896484 238.90112305 C76.50179443 238.90494995 77.81462402 238.90877686 79.16723633 238.91271973 C81.94127299 238.91860471 84.7147931 238.91008524 87.48876953 238.89135742 C91.03652565 238.86856713 94.58307132 238.88169578 98.13078308 238.90564728 C101.52527288 238.9236144 104.91944069 238.9110181 108.31396484 238.90112305 C109.5848999 238.90921997 110.85583496 238.91731689 112.1652832 238.92565918 C113.35001221 238.91305054 114.53474121 238.90044189 115.75537109 238.88745117 C116.79508057 238.8842688 117.83479004 238.88108643 118.90600586 238.87780762 C122.50671695 238.2350552 124.17502755 236.92639903 126.75146484 234.36987305 C128.08806629 231.01394442 128.08806629 231.01394442 127.75146484 227.36987305 C126.18386966 224.33452356 125.53536482 223.15870706 122.75146484 221.36987305 C118.1361844 220.4474965 113.56998469 220.52963807 108.87646484 220.57299805 C107.50552756 220.56895267 106.13459448 220.56312653 104.76367188 220.55560303 C101.89525233 220.54677353 99.02795648 220.55955767 96.15966797 220.58764648 C92.49035205 220.62183645 88.82366884 220.60214394 85.15444946 220.5662117 C82.32491363 220.54448578 79.49599781 220.5514501 76.66644287 220.56697845 C74.65847048 220.5729036 72.65047358 220.55474332 70.64257812 220.53619385 C63.26785803 220.38391754 63.26785803 220.38391754 57.39208984 224.19311523 Z M185.39208984 224.19311523 C183.49460484 227.31145264 183.49460484 227.31145264 183.62646484 230.99487305 C184.97695081 235.04633094 186.21032163 236.06999501 189.75146484 238.36987305 C192.63212315 238.96860998 192.63212315 238.96860998 195.74755859 238.88745117 C197.5246521 238.90636414 197.5246521 238.90636414 199.33764648 238.92565918 C201.24404907 238.91351379 201.24404907 238.91351379 203.18896484 238.90112305 C204.50179443 238.90494995 205.81462402 238.90877686 207.16723633 238.91271973 C209.94127299 238.91860471 212.7147931 238.91008524 215.48876953 238.89135742 C219.03652565 238.86856713 222.58307132 238.88169578 226.13078308 238.90564728 C229.52527288 238.9236144 232.91944069 238.9110181 236.31396484 238.90112305 C237.5848999 238.90921997 238.85583496 238.91731689 240.1652832 238.92565918 C241.35001221 238.91305054 242.53474121 238.90044189 243.75537109 238.88745117 C244.79508057 238.8842688 245.83479004 238.88108643 246.90600586 238.87780762 C250.50671695 238.2350552 252.17502755 236.92639903 254.75146484 234.36987305 C256.08806629 231.01394442 256.08806629 231.01394442 255.75146484 227.36987305 C254.18386966 224.33452356 253.53536482 223.15870706 250.75146484 221.36987305 C246.1361844 220.4474965 241.56998469 220.52963807 236.87646484 220.57299805 C235.50552756 220.56895267 234.13459448 220.56312653 232.76367188 220.55560303 C229.89525233 220.54677353 227.02795648 220.55955767 224.15966797 220.58764648 C220.49035205 220.62183645 216.82366884 220.60214394 213.15444946 220.5662117 C210.32491363 220.54448578 207.49599781 220.5514501 204.66644287 220.56697845 C202.65847048 220.5729036 200.65047358 220.55474332 198.64257812 220.53619385 C191.26785803 220.38391754 191.26785803 220.38391754 185.39208984 224.19311523 Z M313.39208984 224.19311523 C311.49460484 227.31145264 311.49460484 227.31145264 311.62646484 230.99487305 C312.97695081 235.04633094 314.21032163 236.06999501 317.75146484 238.36987305 C320.63212315 238.96860998 320.63212315 238.96860998 323.74755859 238.88745117 C325.5246521 238.90636414 325.5246521 238.90636414 327.33764648 238.92565918 C329.24404907 238.91351379 329.24404907 238.91351379 331.18896484 238.90112305 C332.50179443 238.90494995 333.81462402 238.90877686 335.16723633 238.91271973 C337.94127299 238.91860471 340.7147931 238.91008524 343.48876953 238.89135742 C347.03652565 238.86856713 350.58307132 238.88169578 354.13078308 238.90564728 C357.52527288 238.9236144 360.91944069 238.9110181 364.31396484 238.90112305 C365.5848999 238.90921997 366.85583496 238.91731689 368.1652832 238.92565918 C369.35001221 238.91305054 370.53474121 238.90044189 371.75537109 238.88745117 C372.79508057 238.8842688 373.83479004 238.88108643 374.90600586 238.87780762 C378.50671695 238.2350552 380.17502755 236.92639903 382.75146484 234.36987305 C384.08806629 231.01394442 384.08806629 231.01394442 383.75146484 227.36987305 C382.18386966 224.33452356 381.53536482 223.15870706 378.75146484 221.36987305 C374.1361844 220.4474965 369.56998469 220.52963807 364.87646484 220.57299805 C363.50552756 220.56895267 362.13459448 220.56312653 360.76367188 220.55560303 C357.89525233 220.54677353 355.02795648 220.55955767 352.15966797 220.58764648 C348.49035205 220.62183645 344.82366884 220.60214394 341.15444946 220.5662117 C338.32491363 220.54448578 335.49599781 220.5514501 332.66644287 220.56697845 C330.65847048 220.5729036 328.65047358 220.55474332 326.64257812 220.53619385 C319.26785803 220.38391754 319.26785803 220.38391754 313.39208984 224.19311523 Z " fill="#000000" transform="translate(36.24853515625,245.630126953125)"/>
<path d="M0 0 C0.79030609 0.00215515 1.58061218 0.0043103 2.39486694 0.00653076 C14.59449423 0.05979685 26.37742387 0.59209457 38.3125 3.3125 C39.21145996 3.51117676 40.11041992 3.70985352 41.03662109 3.91455078 C87.64801784 14.45957953 129.68668099 41.52026752 155.54833984 82.25927734 C177.76159315 118.71250138 177.76159315 118.71250138 173.78125 135.5612793 C173.03521474 137.86957929 172.2023172 140.11827213 171.3125 142.375 C170.84263672 143.60283203 170.84263672 143.60283203 170.36328125 144.85546875 C161.66325446 167.06976641 148.73252505 186.07388132 132.3125 203.3125 C131.61898438 204.07046875 130.92546875 204.8284375 130.2109375 205.609375 C98.54765195 239.10644156 51.2794358 254.93403731 6.3125 257.3125 C5.22324219 257.37308594 4.13398438 257.43367188 3.01171875 257.49609375 C0.08967939 257.56798184 -2.76819193 257.47487572 -5.6875 257.3125 C-6.85273193 257.2508667 -6.85273193 257.2508667 -8.04150391 257.18798828 C-59.11219196 254.25977334 -104.9249005 233.00819383 -139.6875 195.3125 C-153.85476354 178.53314724 -175.46523674 149.65902456 -174.12109375 126.80859375 C-169.97664879 102.95003225 -155.26860515 80.2970735 -139.6875 62.3125 C-138.98109375 61.48363281 -138.2746875 60.65476563 -137.546875 59.80078125 C-103.21575577 20.46818602 -51.73143036 -0.2551539 0 0 Z M-71.6875 46.3125 C-72.698125 47.075625 -73.70875 47.83875 -74.75 48.625 C-79.26572221 52.75640543 -82.94615613 57.48157177 -86.6875 62.3125 C-87.29851562 63.09625 -87.90953125 63.88 -88.5390625 64.6875 C-97.34921584 76.59528716 -102.97273326 90.0550147 -106.6875 104.3125 C-106.93371094 105.24578125 -107.17992187 106.1790625 -107.43359375 107.140625 C-113.13394091 134.03053848 -107.0193964 163.16631381 -92.6875 186.3125 C-75.59709298 212.38197296 -50.13387261 229.81074879 -19.6875 236.3125 C8.38778143 241.52449531 36.24339849 234.93081768 60.3125 220.3125 C63.83650572 217.83736385 67.08555469 215.16044167 70.3125 212.3125 C71.14265625 211.61382812 71.9728125 210.91515625 72.828125 210.1953125 C93.31578481 192.53570389 106.34778624 167.16273786 109.3125 140.3125 C110.83641366 109.21569706 103.9038624 81.27259245 83.3125 57.3125 C82.53712891 56.32056641 82.53712891 56.32056641 81.74609375 55.30859375 C65.01240779 34.54875778 37.38586851 22.25581955 11.3125 19.3125 C-20.09778357 17.38579709 -47.7089021 25.92160899 -71.6875 46.3125 Z " fill="#000000" transform="translate(255.6875,8.6875)"/>
<path d="M0 0 C0.68578125 0.51949219 1.3715625 1.03898437 2.078125 1.57421875 C19.17150131 15.36704476 29.59041413 37.23964528 32.6796875 58.66796875 C35.25357325 85.44265835 28.60278157 110.17469102 11.46875 131.08984375 C-3.6377872 148.62190661 -25.76395404 160.90875586 -49 163 C-75.70106784 164.50883343 -99.71527403 158.1118677 -120.27685547 140.38867188 C-138.17405602 124.37226716 -149.66543431 102.11719746 -151.12109375 77.99316406 C-152.3290399 51.1163623 -144.02014462 27.26795876 -125.9921875 7.078125 C-121.21644929 1.99458173 -115.72370124 -2.05237189 -110 -6 C-109.18015625 -6.57363281 -108.3603125 -7.14726563 -107.515625 -7.73828125 C-98.02250582 -13.90243749 -86.17686715 -18.30586856 -75 -20 C-74.32453125 -20.10957031 -73.6490625 -20.21914063 -72.953125 -20.33203125 C-46.26815717 -23.98417101 -20.99881842 -16.53167848 0 0 Z M-109 28 C-113.65368145 34.59999326 -114.11866124 42.15989115 -113 50 C-111.55320995 54.16918506 -109.88461411 58.49679589 -106.359375 61.30859375 C-104.18471308 64.01442309 -104.59896565 67.10981537 -104.5625 70.4375 C-104.08867135 82.44025653 -100.64672808 91.64496033 -93 101 C-92.47664063 101.64839844 -91.95328125 102.29679687 -91.4140625 102.96484375 C-84.41830335 110.76255578 -73.5649562 115.41372146 -63.23828125 116.3359375 C-48.58631286 116.48172823 -37.22874182 112.87970038 -26.3125 102.75 C-16.82367192 92.7327917 -13.32726015 81.41074716 -13.65625 67.8125 C-14.89618544 54.06048871 -21.1512875 43.55790848 -31.609375 34.75390625 C-40.29899404 28.37867921 -48.888476 26.08587415 -59.5 25.75 C-65.62955543 25.42739182 -68.84563314 24.48329804 -73.390625 20.43359375 C-77.8650104 16.44791549 -83.58193226 16.6157861 -89.265625 16.76171875 C-97.69099759 17.49592979 -103.42917387 21.77249496 -109 28 Z " fill="#000000" transform="translate(315,66)"/>
<path d="M0 0 C8.47099447 0.19453223 14.62659236 2.10214737 21.01171875 7.79296875 C26.6653848 13.73109599 29.05924103 19.8407881 29.375 28 C28.99072107 37.22269437 25.93490235 43.16680692 19.515625 49.82421875 C13.13787629 55.34037719 6.25823072 56.70924923 -2.04296875 56.37890625 C-9.57908618 55.41324787 -15.43227906 52.56622369 -20.53125 46.9140625 C-25.08902252 40.97441214 -26.65592753 35.43196539 -27 28 C-26.14277344 27.76925781 -25.28554687 27.53851563 -24.40234375 27.30078125 C-14.92288884 24.59694575 -8.09509842 22.08475781 -3 13.3359375 C-1.17336903 9.06904173 -0.56429645 4.58175025 0 0 Z " fill="#000000" transform="translate(255,109)"/>
<path d="M0 0 C5.0428125 -0.0928125 5.0428125 -0.0928125 10.1875 -0.1875 C11.76374146 -0.22846802 11.76374146 -0.22846802 13.37182617 -0.27026367 C22.25814307 -0.34950689 22.25814307 -0.34950689 26 3 C30.10632388 7.59944138 29.44393154 13.1127849 29.375 18.9375 C29.38660156 19.91396484 29.39820313 20.89042969 29.41015625 21.89648438 C29.38826958 27.27695644 29.22092757 31.4600953 26 36 C22.88247573 37.99338823 20.45805654 38.23788438 16.796875 38.1953125 C15.91354492 38.19031738 15.03021484 38.18532227 14.12011719 38.18017578 C13.00797852 38.16196777 11.89583984 38.14375977 10.75 38.125 C7.2025 38.08375 3.655 38.0425 0 38 C0 25.46 0 12.92 0 0 Z " fill="#000000" transform="translate(365,374)"/>
<path d="M0 0 C3.691875 -0.0825 7.38375 -0.165 11.1875 -0.25 C12.92036255 -0.30462402 12.92036255 -0.30462402 14.68823242 -0.36035156 C22.23192297 -0.44214029 22.23192297 -0.44214029 26.17578125 1.828125 C30.07770723 6.47367284 29.22022329 12.05442912 29.25 17.8125 C29.270625 18.79798828 29.29125 19.78347656 29.3125 20.79882812 C29.34167229 26.22851993 29.27527426 30.41904208 26 35 C22.88170369 36.99248205 20.45845831 37.23788905 16.796875 37.1953125 C15.91354492 37.19031738 15.03021484 37.18532227 14.12011719 37.18017578 C13.00797852 37.16196777 11.89583984 37.14375977 10.75 37.125 C7.2025 37.08375 3.655 37.0425 0 37 C0 24.79 0 12.58 0 0 Z " fill="#000000" transform="translate(365,320)"/>
<path d="M0 0 C2.69990662 1.79993774 4.5418865 3.083773 6 6 C6.68288206 12.94263424 6.68288206 12.94263424 4.0625 17 C0.50484652 19.32336554 -1.65256287 19.79853128 -5.83984375 19.546875 C-8 19 -8 19 -11.0625 16.4375 C-13.30625709 12.45664064 -13.73540053 10.49411434 -13 6 C-9.58657773 0.58560605 -6.30664581 -0.63066458 0 0 Z " fill="#000000" transform="translate(232,100)"/>
<path d="M0 0 C2 1 2 1 2.77783203 3.28491211 C3.01872559 4.27241455 3.25961914 5.25991699 3.5078125 6.27734375 C3.77207031 7.34791016 4.03632813 8.41847656 4.30859375 9.52148438 C4.57800781 10.64876953 4.84742188 11.77605469 5.125 12.9375 C5.40214844 14.06091797 5.67929687 15.18433594 5.96484375 16.34179688 C8 24.67791718 8 24.67791718 8 27 C3.38 27 -1.24 27 -6 27 C-5.37547911 20.79786153 -4.0842258 15.00570586 -2.4375 9 C-2.20353516 8.12988281 -1.96957031 7.25976562 -1.72851562 6.36328125 C-1.15709256 4.24085272 -0.58085043 2.11986406 0 0 Z " fill="#000000" transform="translate(301,348)"/>
</svg>
